{
  "accessors": [
    {
      "bufferView": 0,
      "componentType": 5125,
      "count": 1728,
      "type": "SCALAR"
    },
    {
      "bufferView": 1,
      "componentType": 5126,
      "count": 338,
      "max": [
        -152.558059692383,
        494.034362792969,
        142.873321533203
      ],
      "min": [
        -244.190658569336,
        208.970504760742,
        -142.87287902832
      ],
      "type": "VEC3"
    },
    {
      "bufferView": 2,
      "componentType": 5126,
      "count": 338,
      "type": "VEC3"
    },
    {
      "bufferView": 3,
      "componentType": 5126,
      "count": 338,
      "type": "VEC2"
    },
    {
      "bufferView": 4,
      "componentType": 5125,
      "count": 2160,
      "type": "SCALAR"
    },
    {
      "bufferView": 5,
      "componentType": 5126,
      "count": 402,
      "max": [
        -209.347503662109,
        423.280181884766,
        84.1833877563477
      ],
      "min": [
        -237.149032592773,
        362.994995117188,
        -84.183349609375
      ],
      "type": "VEC3"
    },
    {
      "bufferView": 6,
      "componentType": 5126,
      "count": 402,
      "type": "VEC3"
    },
    {
      "bufferView": 7,
      "componentType": 5126,
      "count": 402,
      "type": "VEC2"
    },
    {
      "bufferView": 8,
      "componentType": 5125,
      "count": 9708,
      "type": "SCALAR"
    },
    {
      "bufferView": 9,
      "componentType": 5126,
      "count": 2172,
      "max": [
        319.758239746094,
        710.881530761719,
        359.378997802734
      ],
      "min": [
        -221.531631469727,
        -7.87646484375,
        -359.378967285156
      ],
      "type": "VEC3"
    },
    {
      "bufferView": 10,
      "componentType": 5126,
      "count": 2172,
      "type": "VEC3"
    },
    {
      "bufferView": 11,
      "componentType": 5126,
      "count": 2172,
      "type": "VEC2"
    }
  ],
  "asset": {
    "generator": "Adobe Substance 3D Painter 7.3.0",
    "version": "2.0"
  },
  "bufferViews": [
    {
      "buffer": 0,
      "byteLength": 6912,
      "target": 34963
    },
    {
      "buffer": 0,
      "byteLength": 4056,
      "byteOffset": 6912,
      "target": 34962
    },
    {
      "buffer": 0,
      "byteLength": 4056,
      "byteOffset": 10968,
      "target": 34962
    },
    {
      "buffer": 0,
      "byteLength": 2704,
      "byteOffset": 15024,
      "target": 34962
    },
    {
      "buffer": 0,
      "byteLength": 8640,
      "byteOffset": 17728,
      "target": 34963
    },
    {
      "buffer": 0,
      "byteLength": 4824,
      "byteOffset": 26368,
      "target": 34962
    },
    {
      "buffer": 0,
      "byteLength": 4824,
      "byteOffset": 31192,
      "target": 34962
    },
    {
      "buffer": 0,
      "byteLength": 3216,
      "byteOffset": 36016,
      "target": 34962
    },
    {
      "buffer": 0,
      "byteLength": 38832,
      "byteOffset": 39232,
      "target": 34963
    },
    {
      "buffer": 0,
      "byteLength": 26064,
      "byteOffset": 78064,
      "target": 34962
    },
    {
      "buffer": 0,
      "byteLength": 26064,
      "byteOffset": 104128,
      "target": 34962
    },
    {
      "buffer": 0,
      "byteLength": 17376,
      "byteOffset": 130192,
      "target": 34962
    }
  ],
  "buffers": [
    {
      "byteLength": 147568,
      "uri": "mesh_vrl_probe.bin"
    }
  ],
  "images": [
    {
      "uri": "mat_vrl_body_baseColor.png"
    },
    {
      "uri": "mat_vrl_body_occlusionRoughnessMetallic.png"
    },
    {
      "uri": "mat_vrl_body_normal.png"
    },
    {
      "uri": "mat_vrl_body_emissive.png"
    },
    {
      "uri": "mat_vrl_eyes_baseColor.png"
    },
    {
      "uri": "mat_vrl_eyes_occlusionRoughnessMetallic.png"
    },
    {
      "uri": "mat_vrl_eyes_normal.png"
    },
    {
      "uri": "mat_vrl_eyes_emissive.png"
    },
    {
      "uri": "mat_vrl_face_baseColor.png"
    },
    {
      "uri": "mat_vrl_face_occlusionRoughnessMetallic.png"
    },
    {
      "uri": "mat_vrl_face_normal.png"
    }
  ],
  "materials": [
    {
      "alphaMode": "OPAQUE",
      "emissiveFactor": [
        1.0,
        1.0,
        1.0
      ],
      "emissiveTexture": {
        "index": 3
      },
      "name": "mat_vrl_body",
      "normalTexture": {
        "index": 2
      },
      "occlusionTexture": {
        "index": 1
      },
      "pbrMetallicRoughness": {
        "baseColorTexture": {
          "index": 0
        },
        "metallicRoughnessTexture": {
          "index": 1
        }
      }
    },
    {
      "alphaMode": "OPAQUE",
      "emissiveFactor": [
        1.0,
        1.0,
        1.0
      ],
      "emissiveTexture": {
        "index": 7
      },
      "name": "mat_vrl_eyes",
      "normalTexture": {
        "index": 6
      },
      "occlusionTexture": {
        "index": 5
      },
      "pbrMetallicRoughness": {
        "baseColorTexture": {
          "index": 4
        },
        "metallicRoughnessTexture": {
          "index": 5
        }
      }
    },
    {
      "alphaMode": "BLEND",
      "name": "mat_vrl_face",
      "normalTexture": {
        "index": 10
      },
      "occlusionTexture": {
        "index": 9
      },
      "pbrMetallicRoughness": {
        "baseColorTexture": {
          "index": 8
        },
        "metallicRoughnessTexture": {
          "index": 9
        }
      }
    }
  ],
  "meshes": [
    {
      "name": "vrl_probe_face",
      "primitives": [
        {
          "attributes": {
            "NORMAL": 2,
            "POSITION": 1,
            "TEXCOORD_0": 3
          },
          "indices": 0,
          "material": 2,
          "mode": 4
        }
      ]
    },
    {
      "name": "vrl_probe_eyes",
      "primitives": [
        {
          "attributes": {
            "NORMAL": 6,
            "POSITION": 5,
            "TEXCOORD_0": 7
          },
          "indices": 4,
          "material": 1,
          "mode": 4
        }
      ]
    },
    {
      "name": "vrl_probe_body_NEW UVW",
      "primitives": [
        {
          "attributes": {
            "NORMAL": 10,
            "POSITION": 9,
            "TEXCOORD_0": 11
          },
          "indices": 8,
          "material": 0,
          "mode": 4
        }
      ]
    }
  ],
  "nodes": [
    {
      "children": [
        1,
        3,
        5
      ],
      "name": "root"
    },
    {
      "children": [
        2
      ],
      "name": "vrl_probe_face"
    },
    {
      "mesh": 0,
      "name": "vrl_probe_face"
    },
    {
      "children": [
        4
      ],
      "name": "vrl_probe_eyes"
    },
    {
      "mesh": 1,
      "name": "vrl_probe_eyes"
    },
    {
      "children": [
        6
      ],
      "name": "vrl_probe_body_NEW UVW"
    },
    {
      "mesh": 2,
      "name": "vrl_probe_body_NEW UVW"
    }
  ],
  "samplers": [
    {
      "magFilter": 9729,
      "minFilter": 9985,
      "wrapS": 10497,
      "wrapT": 10497
    }
  ],
  "scene": 0,
  "scenes": [
    {
      "name": "Scene",
      "nodes": [
        0
      ]
    }
  ],
  "textures": [
    {
      "sampler": 0,
      "source": 0
    },
    {
      "sampler": 0,
      "source": 1
    },
    {
      "sampler": 0,
      "source": 2
    },
    {
      "sampler": 0,
      "source": 3
    },
    {
      "sampler": 0,
      "source": 4
    },
    {
      "sampler": 0,
      "source": 5
    },
    {
      "sampler": 0,
      "source": 6
    },
    {
      "sampler": 0,
      "source": 7
    },
    {
      "sampler": 0,
      "source": 8
    },
    {
      "sampler": 0,
      "source": 9
    },
    {
      "sampler": 0,
      "source": 10
    }
  ]
}